<?xml version="1.0" encoding="UTF-8"?><svg id="Logo" xmlns="http://www.w3.org/2000/svg" viewBox="0 0 231.45 85.04"><g><path d="m147.27,35.88v-6.5h-2.38v-.87h5.58v.87h-2.25v6.5h-.95Z" fill="#c72426"/><path d="m153.01,35.98c-.49,0-.92-.11-1.29-.32-.37-.21-.67-.52-.88-.92-.21-.4-.32-.88-.32-1.44s.1-1.04.29-1.46.47-.74.83-.98c.36-.24.8-.35,1.31-.35s.92.11,1.26.32c.34.21.6.52.78.91.18.39.27.85.27,1.38v.35h-3.78c0,.33.05.63.17.9.11.27.28.49.5.65.22.16.51.24.85.24s.63-.08.87-.23.4-.38.47-.68h.89c-.06.36-.2.66-.43.9-.22.24-.49.43-.8.55-.31.12-.64.19-.98.19Zm-1.53-3.16h2.86c0-.3-.05-.58-.15-.82-.1-.24-.26-.44-.47-.58-.21-.14-.47-.21-.79-.21s-.6.08-.82.24-.38.36-.48.61-.16.5-.15.76Z" fill="#c72426"/><path d="m158.68,35.98c-.48,0-.9-.1-1.26-.31s-.65-.51-.86-.92c-.21-.4-.31-.9-.31-1.49,0-.55.09-1.03.28-1.44.19-.41.46-.74.83-.97.36-.23.8-.35,1.32-.35.38,0,.72.07,1.02.22s.55.35.74.61c.19.27.31.58.36.94h-.84c-.03-.19-.1-.36-.21-.51-.11-.15-.25-.28-.43-.37s-.39-.14-.63-.14c-.45,0-.82.16-1.1.49-.28.33-.43.83-.43,1.5,0,.61.13,1.09.39,1.46.26.37.64.55,1.15.55.24,0,.45-.05.63-.14.18-.09.32-.22.43-.37s.18-.32.21-.5h.82c-.04.35-.16.66-.36.92-.2.26-.44.46-.74.6-.3.14-.64.21-1.01.21Z" fill="#c72426"/><path d="m162.03,35.88v-7.57h.92v3.08c.09-.15.21-.28.36-.41.15-.13.33-.23.54-.31.21-.08.46-.12.74-.12.34,0,.65.06.93.19.28.13.5.31.66.54s.24.51.24.84v3.77h-.94v-3.58c0-.32-.11-.56-.32-.73-.22-.17-.5-.26-.84-.26-.24,0-.46.04-.66.12-.21.08-.38.19-.5.35-.13.15-.19.35-.19.59v3.52h-.94Z" fill="#c72426"/><path d="m167.9,35.88v-5.27h.92v.76c.08-.15.2-.28.35-.41.15-.13.33-.23.55-.31s.46-.12.75-.12c.33,0,.64.07.92.2s.5.34.67.62c.17.28.25.64.25,1.08v3.45h-.94v-3.35c0-.41-.11-.72-.32-.92-.22-.2-.5-.3-.84-.3-.24,0-.46.04-.67.12-.21.08-.38.19-.5.35-.13.15-.19.35-.19.58v3.52h-.94Z" fill="#c72426"/><path d="m173.78,29.49v-.98h.97v.98h-.97Zm.03,6.39v-5.27h.91v5.27h-.91Z" fill="#c72426"/><path d="m178.21,35.98c-.37,0-.71-.06-1.02-.17-.31-.11-.58-.29-.78-.54-.21-.24-.34-.55-.39-.93h.86c.04.21.13.38.25.52.12.14.28.24.47.31.19.07.39.1.61.1.36,0,.64-.07.86-.2.22-.13.33-.34.33-.61,0-.19-.06-.35-.17-.47-.11-.12-.29-.2-.53-.26l-1.09-.27c-.42-.1-.76-.26-1.02-.48-.25-.22-.38-.52-.38-.91,0-.31.07-.58.22-.82s.37-.42.67-.56c.3-.14.67-.2,1.11-.2.57,0,1.04.13,1.39.39.35.26.53.63.55,1.13h-.84c-.03-.25-.15-.45-.34-.6-.19-.15-.45-.22-.77-.22s-.61.07-.82.2c-.21.13-.32.34-.32.62,0,.19.08.33.23.44.15.11.37.2.66.27l1.06.27c.24.06.44.15.6.25.16.11.29.22.38.35s.16.26.2.41.06.28.06.41c0,.32-.08.6-.24.83-.16.23-.39.41-.69.54-.3.13-.67.19-1.1.19Z" fill="#c72426"/><path d="m183.59,35.98c-.48,0-.9-.1-1.26-.31s-.65-.51-.86-.92c-.21-.4-.31-.9-.31-1.49,0-.55.09-1.03.28-1.44.19-.41.46-.74.83-.97.36-.23.8-.35,1.32-.35.38,0,.72.07,1.02.22s.55.35.74.61c.19.27.31.58.36.94h-.84c-.03-.19-.1-.36-.21-.51-.11-.15-.25-.28-.43-.37s-.39-.14-.63-.14c-.45,0-.82.16-1.1.49-.28.33-.43.83-.43,1.5,0,.61.13,1.09.39,1.46.26.37.64.55,1.15.55.24,0,.45-.05.63-.14.18-.09.32-.22.43-.37s.18-.32.21-.5h.82c-.04.35-.16.66-.36.92-.2.26-.44.46-.74.6-.3.14-.64.21-1.01.21Z" fill="#c72426"/><path d="m186.94,35.88v-7.57h.92v3.08c.09-.15.21-.28.36-.41.15-.13.33-.23.54-.31.21-.08.46-.12.74-.12.34,0,.65.06.93.19.28.13.5.31.66.54s.24.51.24.84v3.77h-.94v-3.58c0-.32-.11-.56-.32-.73-.22-.17-.5-.26-.84-.26-.24,0-.46.04-.66.12-.21.08-.38.19-.5.35-.13.15-.19.35-.19.59v3.52h-.94Z" fill="#c72426"/><path d="m195.05,35.98c-.49,0-.92-.11-1.29-.32-.37-.21-.67-.52-.88-.92-.21-.4-.32-.88-.32-1.44s.1-1.04.29-1.46.47-.74.83-.98c.36-.24.8-.35,1.31-.35s.92.11,1.26.32c.34.21.6.52.78.91.18.39.27.85.27,1.38v.35h-3.78c0,.33.05.63.17.9.11.27.28.49.5.65.22.16.51.24.85.24s.63-.08.87-.23.4-.38.47-.68h.89c-.06.36-.2.66-.43.9-.22.24-.49.43-.8.55-.31.12-.64.19-.98.19Zm-1.53-3.16h2.86c0-.3-.05-.58-.15-.82-.1-.24-.26-.44-.47-.58-.21-.14-.47-.21-.79-.21s-.6.08-.82.24-.38.36-.48.61-.16.5-.15.76Z" fill="#c72426"/><path d="m146.03,46.28v-7.37h.94v3.14h3.98v-3.14h.94v7.37h-.94v-3.4h-3.98v3.4h-.94Z" fill="#c72426"/><path d="m155.69,46.39c-.49,0-.91-.1-1.27-.31-.36-.21-.64-.52-.84-.92-.2-.4-.3-.9-.3-1.48,0-.55.09-1.03.28-1.45.19-.42.46-.74.82-.97s.8-.34,1.32-.34c.49,0,.91.11,1.26.32.36.21.63.52.83.93.2.41.3.91.3,1.5,0,.54-.09,1.01-.28,1.42-.18.41-.45.73-.81.96-.36.23-.79.34-1.32.34Zm0-.74c.31,0,.58-.08.79-.24s.38-.39.5-.69c.11-.3.17-.65.17-1.07,0-.38-.05-.72-.15-1.02s-.26-.54-.47-.72-.49-.27-.84-.27c-.32,0-.59.08-.81.24s-.39.39-.5.69c-.11.3-.17.66-.17,1.08,0,.37.05.71.15,1.01.1.3.26.54.48.72.22.18.5.26.85.26Z" fill="#c72426"/><path d="m161.46,46.39c-.48,0-.9-.1-1.26-.31s-.65-.51-.86-.92c-.21-.4-.31-.9-.31-1.49,0-.55.09-1.03.28-1.44.19-.41.46-.74.83-.97.36-.23.8-.35,1.32-.35.38,0,.72.07,1.02.22s.55.35.74.61c.19.27.31.58.36.94h-.84c-.03-.19-.1-.36-.21-.51-.11-.15-.25-.28-.43-.37s-.39-.14-.63-.14c-.45,0-.82.16-1.1.49-.28.33-.43.83-.43,1.5,0,.61.13,1.09.39,1.46.26.37.64.55,1.15.55.24,0,.45-.05.63-.14.18-.09.32-.22.43-.37s.18-.32.21-.5h.82c-.04.35-.16.66-.36.92-.2.26-.44.46-.74.6-.3.14-.64.21-1.01.21Z" fill="#c72426"/><path d="m164.81,46.28v-7.57h.92v3.08c.09-.15.21-.28.36-.41.15-.13.33-.23.54-.31.21-.08.46-.12.74-.12.34,0,.65.06.93.19.28.13.5.31.66.54s.24.51.24.84v3.77h-.94v-3.58c0-.32-.11-.56-.32-.73-.22-.17-.5-.26-.84-.26-.24,0-.46.04-.66.12-.21.08-.38.19-.5.35-.13.15-.19.35-.19.59v3.52h-.94Z" fill="#c72426"/><path d="m172.54,46.39c-.37,0-.71-.06-1.02-.17-.31-.11-.58-.29-.78-.54-.21-.24-.34-.55-.39-.93h.86c.04.21.13.38.25.52.12.14.28.24.47.31.19.07.39.1.61.1.36,0,.64-.07.86-.2.22-.13.33-.34.33-.61,0-.19-.06-.35-.17-.47-.11-.12-.29-.2-.53-.26l-1.09-.27c-.42-.1-.76-.26-1.02-.48-.25-.22-.38-.52-.38-.91,0-.31.07-.58.22-.82s.37-.42.67-.56c.3-.14.67-.2,1.11-.2.57,0,1.04.13,1.39.39.35.26.53.63.55,1.13h-.84c-.03-.25-.15-.45-.34-.6-.19-.15-.45-.22-.77-.22s-.61.07-.82.2c-.21.13-.32.34-.32.62,0,.19.08.33.23.44.15.11.37.2.66.27l1.06.27c.24.06.44.15.6.25.16.11.29.22.38.35s.16.26.2.41.06.28.06.41c0,.32-.08.6-.24.83-.16.23-.39.41-.69.54-.3.13-.67.19-1.1.19Z" fill="#c72426"/><path d="m177.92,46.39c-.48,0-.9-.1-1.26-.31s-.65-.51-.86-.92c-.21-.4-.31-.9-.31-1.49,0-.55.09-1.03.28-1.44.19-.41.46-.74.83-.97.36-.23.8-.35,1.32-.35.38,0,.72.07,1.02.22s.55.35.74.61c.19.27.31.58.36.94h-.84c-.03-.19-.1-.36-.21-.51-.11-.15-.25-.28-.43-.37s-.39-.14-.63-.14c-.45,0-.82.16-1.1.49-.28.33-.43.83-.43,1.5,0,.61.13,1.09.39,1.46.26.37.64.55,1.15.55.24,0,.45-.05.63-.14.18-.09.32-.22.43-.37s.18-.32.21-.5h.82c-.04.35-.16.66-.36.92-.2.26-.44.46-.74.6-.3.14-.64.21-1.01.21Z" fill="#c72426"/><path d="m181.27,46.28v-7.57h.92v3.08c.09-.15.21-.28.36-.41.15-.13.33-.23.54-.31.21-.08.46-.12.74-.12.34,0,.65.06.93.19.28.13.5.31.66.54s.24.51.24.84v3.77h-.94v-3.58c0-.32-.11-.56-.32-.73-.22-.17-.5-.26-.84-.26-.24,0-.46.04-.66.12-.21.08-.38.19-.5.35-.13.15-.19.35-.19.59v3.52h-.94Z" fill="#c72426"/><path d="m189.09,46.39c-.28,0-.53-.04-.78-.12-.24-.08-.46-.19-.64-.34-.19-.15-.33-.34-.44-.56-.11-.22-.16-.48-.16-.78v-3.58h.94v3.48c0,.34.11.62.32.84.21.21.53.32.96.32.39,0,.7-.1.94-.3.24-.2.35-.5.35-.9v-3.43h.94v5.27h-.75l-.1-1.01c-.06.27-.17.48-.33.64-.16.16-.34.28-.56.36s-.45.11-.7.11Z" fill="#c72426"/><path d="m194.47,46.35c-.29,0-.52-.04-.69-.12-.18-.08-.31-.18-.4-.32-.09-.13-.16-.28-.19-.46-.03-.17-.05-.35-.05-.53v-6.22h.93v6.13c0,.26.05.46.16.6.1.13.25.21.44.22h.29v.62c-.08.02-.16.04-.24.06-.08.02-.16.02-.23.02Z" fill="#c72426"/><path d="m198.2,46.39c-.49,0-.92-.11-1.29-.32-.37-.21-.67-.52-.88-.92-.21-.4-.32-.88-.32-1.44s.1-1.04.29-1.46.47-.74.83-.98c.36-.24.8-.35,1.31-.35s.92.11,1.26.32c.34.21.6.52.78.91.18.39.27.85.27,1.38v.35h-3.78c0,.33.05.63.17.9.11.27.28.49.5.65.22.16.51.24.85.24s.63-.08.87-.23.4-.38.47-.68h.89c-.06.36-.2.66-.43.9-.22.24-.49.43-.8.55-.31.12-.64.19-.98.19Zm-1.53-3.16h2.86c0-.3-.05-.58-.15-.82-.1-.24-.26-.44-.47-.58-.21-.14-.47-.21-.79-.21s-.6.08-.82.24-.38.36-.48.61-.16.5-.15.76Z" fill="#c72426"/><path d="m146.03,56.69v-7.37h.9l3.89,5.73v-5.73h.94v7.37h-.84l-3.96-5.81v5.81h-.94Z" fill="#c72426"/><path d="m155.46,56.79c-.28,0-.53-.04-.78-.12-.24-.08-.46-.19-.64-.34-.19-.15-.33-.34-.44-.56-.11-.22-.16-.48-.16-.78v-3.58h.94v3.48c0,.34.11.62.32.84.21.21.53.32.96.32.39,0,.7-.1.94-.3.24-.2.35-.5.35-.9v-3.43h.94v5.27h-.75l-.1-1.01c-.06.27-.17.48-.33.64-.16.16-.34.28-.56.36s-.45.11-.7.11Zm-1.24-6.56v-.91h.93v.91h-.93Zm1.98,0v-.91h.93v.91h-.93Z" fill="#c72426"/><path d="m159.5,56.69v-5.27h.9v1.01c.09-.25.21-.46.37-.62.16-.17.34-.29.55-.37.21-.08.42-.12.64-.12.08,0,.15,0,.23.02.08.01.13.03.17.05v.91c-.05-.02-.12-.04-.2-.05s-.15-.01-.2-.01c-.21-.01-.41,0-.59.04s-.34.11-.48.2c-.14.1-.25.22-.33.38-.08.15-.12.34-.12.56v3.28h-.94Z" fill="#c72426"/><path d="m163.49,56.69v-5.27h.92v.76c.08-.15.2-.28.35-.41.15-.13.33-.23.55-.31s.46-.12.75-.12c.33,0,.64.07.92.2s.5.34.67.62c.17.28.25.64.25,1.08v3.45h-.94v-3.35c0-.41-.11-.72-.32-.92-.22-.2-.5-.3-.84-.3-.24,0-.46.04-.67.12-.21.08-.38.19-.5.35-.13.15-.19.35-.19.58v3.52h-.94Z" fill="#c72426"/><path d="m171.98,56.79c-.31,0-.57-.04-.78-.12-.21-.08-.39-.19-.52-.31-.14-.13-.24-.26-.32-.39-.08-.13-.13-.25-.16-.35l-.1,1.08h-.72v-7.57h.95v3.14c.04-.09.11-.19.2-.29.09-.1.21-.21.35-.31s.31-.18.51-.24c.2-.06.42-.1.67-.1.66,0,1.18.23,1.57.69.39.46.58,1.13.58,2.03,0,.55-.08,1.04-.25,1.45-.17.41-.41.73-.74.96-.33.23-.74.34-1.23.34Zm-.17-.72c.43,0,.78-.17,1.04-.5.27-.33.4-.86.4-1.58,0-.62-.12-1.09-.38-1.43-.25-.34-.61-.51-1.09-.51-.35,0-.63.08-.84.23-.21.15-.37.37-.47.66-.1.29-.15.64-.16,1.05,0,.74.12,1.27.34,1.59.23.32.61.49,1.14.49Z" fill="#c72426"/><path d="m177.68,56.79c-.49,0-.92-.11-1.29-.32-.37-.21-.67-.52-.88-.92-.21-.4-.32-.88-.32-1.44s.1-1.04.29-1.46.47-.74.83-.98c.36-.24.8-.35,1.31-.35s.92.11,1.26.32c.34.21.6.52.78.91.18.39.27.85.27,1.38v.35h-3.78c0,.33.05.63.17.9.11.27.28.49.5.65.22.16.51.24.85.24s.63-.08.87-.23.4-.38.47-.68h.89c-.06.36-.2.66-.43.9-.22.24-.49.43-.8.55-.31.12-.64.19-.98.19Zm-1.53-3.16h2.86c0-.3-.05-.58-.15-.82-.1-.24-.26-.44-.47-.58-.21-.14-.47-.21-.79-.21s-.6.08-.82.24-.38.36-.48.61-.16.5-.15.76Z" fill="#c72426"/><path d="m181.23,56.69v-5.27h.9v1.01c.09-.25.21-.46.37-.62.16-.17.34-.29.55-.37.21-.08.42-.12.64-.12.08,0,.15,0,.23.02.08.01.13.03.17.05v.91c-.05-.02-.12-.04-.2-.05s-.15-.01-.2-.01c-.21-.01-.41,0-.59.04s-.34.11-.48.2c-.14.1-.25.22-.33.38-.08.15-.12.34-.12.56v3.28h-.94Z" fill="#c72426"/><path d="m187.28,58.43c-.83,0-1.47-.12-1.93-.36-.46-.24-.69-.58-.69-1.03,0-.19.04-.35.13-.49.09-.13.19-.25.32-.33.12-.09.24-.16.34-.21.1-.05.17-.09.2-.11-.06-.03-.13-.08-.21-.13-.08-.05-.16-.12-.23-.2s-.1-.2-.1-.33c0-.17.08-.32.23-.46.16-.14.39-.24.7-.31-.31-.16-.55-.36-.72-.62-.17-.26-.26-.54-.26-.84,0-.34.09-.64.28-.89.18-.25.45-.44.79-.58.34-.13.75-.2,1.23-.2.34,0,.63.04.86.12.23.08.45.19.65.34.05-.02.14-.06.26-.11.12-.05.25-.1.39-.16.14-.06.27-.11.4-.17s.22-.09.3-.12v.87s-.93.17-.93.17c.05.11.1.23.13.36.03.13.04.25.04.36,0,.31-.08.59-.24.84-.16.25-.41.45-.73.6-.33.15-.73.22-1.22.22-.04,0-.09,0-.16,0-.06,0-.12,0-.16,0-.36,0-.61.05-.74.12-.13.07-.2.15-.2.23,0,.1.08.17.23.2.15.04.41.07.78.1.13,0,.3.01.49.03.2,0,.41.02.66.04.55.03.98.17,1.27.42s.45.58.45,1c0,.48-.21.87-.64,1.17-.43.3-1.08.45-1.95.45Zm.17-.61c.49,0,.86-.07,1.12-.22.26-.15.39-.37.39-.66,0-.21-.08-.38-.24-.51-.16-.14-.4-.21-.72-.23l-1.48-.1c-.13,0-.27.03-.41.1-.14.07-.26.17-.36.3s-.15.28-.15.44c0,.28.15.5.45.65.3.16.77.23,1.4.23Zm-.16-3.76c.38,0,.68-.09.92-.27.23-.18.35-.44.35-.78s-.12-.62-.35-.81-.54-.28-.92-.28-.7.09-.94.28-.35.46-.35.81c0,.33.11.59.34.77.23.18.54.28.95.28Z" fill="#c72426"/></g><g><path d="m88.84,39.45c.13-5.5-3.11-10.48-8.87-11.14-2.74-.24-5.63.75-7.79,2.5,0-.29,0-.57.03-.86.07-3.08.12-9.28.1-12.36h-6.02v39.1h6.02s0-10.98,0-14.37h0s0-1.35,0-2.64c.06-1.74.39-3.56,1.71-4.57,1.56-1.18,4.39-1.38,6.18-.58,1.52.72,2.09,1.81,2.48,3.48.1.65.17,2.27.17,4.32,0,4.69-.08,13.09-.02,14.36,0,0,6.02,0,6.02,0-.01-1.2.02-16.43,0-17.24Z" fill="#c72426"/><path d="m132.68,51.01s-.05,0-.08.01c0-4.84.01-11.06,0-11.57.17-5.29-3.17-10.77-8.86-11.18-3.55-.28-7.61.98-9.81,3.91-1.52-2.11-3.8-3.61-6.72-3.92-.92-.05-1.85.02-2.77.21-1.83.35-3.59,1.18-5.03,2.34-.02-.83-.02-1.65,0-2.48h-5.9v28.36h6.02l.02-7.09v-7.09c0-.39,0-2.82,0-3,0-.62.07-1.08.14-1.47.13-.7.34-1.37.68-1.94.16-.26.34-.5.56-.72.01-.01.22-.19.31-.27,1.2-.88,2.83-1.15,4.31-1.03.68.06,1.32.21,1.87.45.76.36,1.28.81,1.67,1.38.12.19.23.39.33.6.2.44.36.93.49,1.5.03.16.05.38.07.64,0,.09.01.18.02.28.01.26.03.55.04.87,0,.01,0,.02,0,.03,0,.27.02,1.31.02,1.49.03,3.44,0,6.87,0,10.31,0,.24,0,5.05,0,5.05,0,0,1.7,0,3.29,0,.37,0,.74,0,1.08,0s.65,0,.91,0h.74s0-.03,0-.04h0s0-3.22,0-6.7c0-1.16,0-2.37,0-3.54,0-.25,0-3.58,0-4.66,0-.18,0-.51,0-.51,0,0,0-1.44,0-1.48,0-1.33.28-3,1.03-3.95,1.02-1.32,2.53-1.68,4.26-1.73,1.69-.06,3.31.42,4.2,1.75.64.88,1.02,2.37,1.03,3.62v1.92s0,15.32,0,15.32c0,0,6.02,0,6.02,0h0s6.1,0,6.1,0v-6.02c-1.74-.02-3.89-.07-6.03.34Z" fill="#c72426"/><path d="m48.27,27.97h0c-6.03.08-11.47,2.86-13.36,8.9-1.41,4.44-.97,9.13,1.53,13.11.23.35.49.68.77.99-2.05-.36-4.11-.32-6.18-.3v6.02h15.27v-5.82c-4.31-.58-5.98-3.5-6.03-8.68-.15-5.71,2.49-8.8,8.02-8.92h0c3.55.04,6.71,1.67,7.59,5.26.6,2.23.56,5.22.03,7.45-.7,3.11-2.87,4.52-5.64,4.89v5.68c1.1-.12,2.23-.32,3.38-.67,8.1-2.37,10.2-11.71,7.97-18.99-1.91-6-7.32-8.83-13.33-8.92Z" fill="#c72426"/></g></svg>